<svg preserveAspectRatio="none" overflow="visible" style="display: block;" width="16.2022" height="17.8667" viewBox="0 0 16.2022 17.8667" fill="none" xmlns="http://www.w3.org/2000/svg">
<g id="elements">
<path id="Vector" d="M9.44846 16.7391C9.08705 17.0775 8.60399 17.2667 8.10127 17.2667C7.59854 17.2667 7.11549 17.0775 6.75408 16.7391C3.44452 13.6216 -0.990695 10.1391 1.17223 5.08305C2.3417 2.3493 5.14896 0.6 8.10127 0.6C11.0536 0.6 13.8608 2.3493 15.0303 5.08305C17.1905 10.1327 12.7662 13.6324 9.44846 16.7391Z" stroke="white" stroke-width="1.2"/>
<path id="Ellipse 1590" d="M11.017 8.1C11.017 9.71083 9.71117 11.0167 8.10034 11.0167C6.48951 11.0167 5.18367 9.71083 5.18367 8.1C5.18367 6.48917 6.48951 5.18333 8.10034 5.18333C9.71117 5.18333 11.017 6.48917 11.017 8.1Z" stroke="white" stroke-width="1.2"/>
</g>
</svg>
